<?xml version="1.0" encoding="utf-8"?>
<!-- Generator: Adobe Illustrator 15.0.2, SVG Export Plug-In . SVG Version: 6.00 Build 0)  -->
<!DOCTYPE svg PUBLIC "-//W3C//DTD SVG 1.1//EN" "http://www.w3.org/Graphics/SVG/1.1/DTD/svg11.dtd">
<svg version="1.1" id="Layer_1" xmlns="http://www.w3.org/2000/svg" xmlns:xlink="http://www.w3.org/1999/xlink" x="0px" y="0px"
	 width="1329px" height="160px" viewBox="0 0 1329 160" enable-background="new 0 0 1329 160" xml:space="preserve">
<pattern  x="359" y="476.5" width="72" height="72" patternUnits="userSpaceOnUse" id="Lines" viewBox="0 -72 72 72" overflow="visible">
	<g>
		<g>
			<polygon fill="none" points="0,0 72,0 72,-72 0,-72 			"/>
		</g>
		<g>
			<polygon fill="#B1B3B5" points="0,-45.596 72,-45.596 72,-45.915 0,-45.915 			"/>
		</g>
		<g>
			<polygon fill="#B1B3B5" points="0,-71.661 72,-71.661 72,-71.981 0,-71.981 			"/>
		</g>
		<g>
			<polygon fill="#B1B3B5" points="0,-68.401 72,-68.401 72,-68.721 0,-68.721 			"/>
		</g>
		<g>
			<polygon fill="#B1B3B5" points="0,-65.148 72,-65.148 72,-65.469 0,-65.469 			"/>
		</g>
		<g>
			<polygon fill="#B1B3B5" points="0,-61.887 72,-61.887 72,-62.207 0,-62.207 			"/>
		</g>
		<g>
			<polygon fill="#B1B3B5" points="0,-58.636 72,-58.636 72,-58.955 0,-58.955 			"/>
		</g>
		<g>
			<polygon fill="#B1B3B5" points="0,-55.37 72,-55.37 72,-55.689 0,-55.689 			"/>
		</g>
		<g>
			<polygon fill="#B1B3B5" points="0,-52.113 72,-52.113 72,-52.433 0,-52.433 			"/>
		</g>
		<g>
			<polygon fill="#B1B3B5" points="0,-48.856 72,-48.856 72,-49.177 0,-49.177 			"/>
		</g>
		<g>
			<polygon fill="#B1B3B5" points="0,-42.34 72,-42.34 72,-42.659 0,-42.659 			"/>
		</g>
		<g>
			<polygon fill="#B1B3B5" points="0,-39.082 72,-39.082 72,-39.402 0,-39.402 			"/>
		</g>
		<g>
			<polygon fill="#B1B3B5" points="0,-35.826 72,-35.826 72,-36.146 0,-36.146 			"/>
		</g>
		<g>
			<polygon fill="#B1B3B5" points="0,-32.564 72,-32.564 72,-32.885 0,-32.885 			"/>
		</g>
		<g>
			<polygon fill="#B1B3B5" points="0,-29.308 72,-29.308 72,-29.628 0,-29.628 			"/>
		</g>
		<g>
			<polygon fill="#B1B3B5" points="0,-26.048 72,-26.048 72,-26.367 0,-26.367 			"/>
		</g>
		<g>
			<polygon fill="#B1B3B5" points="0,-22.795 72,-22.795 72,-23.114 0,-23.114 			"/>
		</g>
		<g>
			<polygon fill="#B1B3B5" points="0,-19.534 72,-19.534 72,-19.854 0,-19.854 			"/>
		</g>
		<g>
			<polygon fill="#B1B3B5" points="0,-16.272 72,-16.272 72,-16.594 0,-16.594 			"/>
		</g>
		<g>
			<polygon fill="#B1B3B5" points="0,-13.017 72,-13.017 72,-13.336 0,-13.336 			"/>
		</g>
		<g>
			<polygon fill="#B1B3B5" points="0,-9.761 72,-9.761 72,-10.08 0,-10.08 			"/>
		</g>
		<g>
			<polygon fill="#B1B3B5" points="0,-6.503 72,-6.503 72,-6.823 0,-6.823 			"/>
		</g>
		<g>
			<polygon fill="#B1B3B5" points="0,-3.247 72,-3.247 72,-3.566 0,-3.566 			"/>
		</g>
	</g>
</pattern>
<pattern  id="SVGID_1_" xlink:href="#Lines" patternTransform="matrix(0.3304 0 0 0.7397 -5467.5693 -2337.7485)">
</pattern>
<rect x="-4" opacity="0.5" fill="url(#SVGID_1_)" width="1343" height="160"/>
</svg>
