<?xml version="1.0" encoding="utf-8"?>
<!-- Generator: Adobe Illustrator 15.0.2, SVG Export Plug-In . SVG Version: 6.00 Build 0)  -->
<!DOCTYPE svg PUBLIC "-//W3C//DTD SVG 1.1//EN" "http://www.w3.org/Graphics/SVG/1.1/DTD/svg11.dtd">
<svg version="1.1" id="Layer_1" xmlns="http://www.w3.org/2000/svg" xmlns:xlink="http://www.w3.org/1999/xlink" x="0px" y="0px"
	 width="1329px" height="160px" viewBox="0 0 1329 160" enable-background="new 0 0 1329 160" xml:space="preserve">
<symbol  id="_x12_1035227680_2038135710_99" viewBox="-35.141 -40.577 70.282 81.155">
	<polygon fill="none" stroke="#A0A1A2" points="0,-40 -34.641,-20 -34.641,20 0,40 34.641,20 34.641,-20 	"/>
</symbol>
<symbol  id="_x12_1035227680_2038201502_91" viewBox="-35.141 -40.577 70.282 81.155">
	<polygon fill="none" stroke="#A3A5A6" points="0,-40 -34.641,-20 -34.641,20 0,40 34.641,20 34.641,-20 	"/>
</symbol>
<symbol  id="_x12_1035227680_2038201502_95" viewBox="-35.141 -40.577 70.282 81.155">
	<polygon fill="none" stroke="#A2A3A4" points="0,-40 -34.641,-20 -34.641,20 0,40 34.641,20 34.641,-20 	"/>
</symbol>
<symbol  id="_x12_1035227680_2038201502_96" viewBox="-35.141 -40.577 70.282 81.155">
	<polygon fill="none" stroke="#A2A3A4" points="0,-40 -34.641,-20 -34.641,20 0,40 34.641,20 34.641,-20 	"/>
</symbol>
<symbol  id="_x12_1035227680_2038201502_97" viewBox="-35.141 -40.577 70.282 81.155">
	<polygon fill="none" stroke="#A1A2A3" points="0,-40 -34.641,-20 -34.641,20 0,40 34.641,20 34.641,-20 	"/>
</symbol>
<symbol  id="_x12_1035227680_2038201502_98" viewBox="-35.141 -40.577 70.282 81.155">
	<polygon fill="none" stroke="#A1A2A3" points="0,-40 -34.641,-20 -34.641,20 0,40 34.641,20 34.641,-20 	"/>
</symbol>
<symbol  id="_x12_1035227680_2038201502_99" viewBox="-35.141 -40.577 70.282 81.155">
	<polygon fill="none" stroke="#A0A1A2" points="0,-40 -34.641,-20 -34.641,20 0,40 34.641,20 34.641,-20 	"/>
</symbol>
<symbol  id="_x12_913531680_2038135710_99" viewBox="-5.831 -5.05 11.662 10.1">
	<polygon fill="#A0A1A2" points="-2.916,-5.05 -5.831,0 -2.916,5.05 2.916,5.05 5.831,0 2.916,-5.05 	"/>
</symbol>
<symbol  id="_x12_913531680_2038201502_76" viewBox="-5.831 -5.05 11.662 10.1">
	<polygon fill="#AAABAE" points="-2.916,-5.05 -5.831,0 -2.916,5.05 2.916,5.05 5.831,0 2.916,-5.05 	"/>
</symbol>
<symbol  id="_x12_913531680_2038201502_77" viewBox="-5.831 -5.05 11.662 10.1">
	<polygon fill="#A9ABAD" points="-2.916,-5.05 -5.831,0 -2.916,5.05 2.916,5.05 5.831,0 2.916,-5.05 	"/>
</symbol>
<symbol  id="_x12_913531680_2038201502_86" viewBox="-5.831 -5.05 11.662 10.1">
	<polygon fill="#A5A7A9" points="-2.916,-5.05 -5.831,0 -2.916,5.05 2.916,5.05 5.831,0 2.916,-5.05 	"/>
</symbol>
<symbol  id="_x12_913531680_2038201502_87" viewBox="-5.831 -5.05 11.662 10.1">
	<polygon fill="#A5A6A8" points="-2.916,-5.05 -5.831,0 -2.916,5.05 2.916,5.05 5.831,0 2.916,-5.05 	"/>
</symbol>
<symbol  id="_x12_913531680_2038201502_88" viewBox="-5.831 -5.05 11.662 10.1">
	<polygon fill="#A4A6A8" points="-2.916,-5.05 -5.831,0 -2.916,5.05 2.916,5.05 5.831,0 2.916,-5.05 	"/>
</symbol>
<symbol  id="_x12_913531680_2038201502_90" viewBox="-5.831 -5.05 11.662 10.1">
	<polygon fill="#A4A5A7" points="-2.916,-5.05 -5.831,0 -2.916,5.05 2.916,5.05 5.831,0 2.916,-5.05 	"/>
</symbol>
<symbol  id="_x12_913531680_2038201502_91" viewBox="-5.831 -5.05 11.662 10.1">
	<polygon fill="#A4A5A7" points="-2.916,-5.05 -5.831,0 -2.916,5.05 2.916,5.05 5.831,0 2.916,-5.05 	"/>
</symbol>
<symbol  id="_x12_913531680_2038201502_95" viewBox="-5.831 -5.05 11.662 10.1">
	<polygon fill="#A2A3A5" points="-2.916,-5.05 -5.831,0 -2.916,5.05 2.916,5.05 5.831,0 2.916,-5.05 	"/>
</symbol>
<symbol  id="_x12_913531680_2038201502_96" viewBox="-5.831 -5.05 11.662 10.1">
	<polygon fill="#A1A3A4" points="-2.916,-5.05 -5.831,0 -2.916,5.05 2.916,5.05 5.831,0 2.916,-5.05 	"/>
</symbol>
<symbol  id="_x12_913531680_2038201502_97" viewBox="-5.831 -5.05 11.662 10.1">
	<polygon fill="#A1A2A3" points="-2.916,-5.05 -5.831,0 -2.916,5.05 2.916,5.05 5.831,0 2.916,-5.05 	"/>
</symbol>
<symbol  id="_x12_913531680_2038201502_98" viewBox="-5.831 -5.05 11.662 10.1">
	<polygon fill="#A1A2A3" points="-2.916,-5.05 -5.831,0 -2.916,5.05 2.916,5.05 5.831,0 2.916,-5.05 	"/>
</symbol>
<symbol  id="_x12_913531680_2038201502_99" viewBox="-5.831 -5.05 11.662 10.1">
	<polygon fill="#A0A1A2" points="-2.916,-5.05 -5.831,0 -2.916,5.05 2.916,5.05 5.831,0 2.916,-5.05 	"/>
</symbol>
<g>
	<g>
		<defs>
			<rect id="SVGID_1_" x="-81.254" y="-0.498" width="1606.381" height="334"/>
		</defs>
		<clipPath id="SVGID_2_">
			<use xlink:href="#SVGID_1_"  overflow="visible"/>
		</clipPath>
		<g clip-path="url(#SVGID_2_)">
			<g>
				<polygon fill="none" stroke="#FFFFFF" points="-26.038,282 1286.937,171.028 1573.346,246.67 -505.341,732.147 				"/>
				<line fill="none" stroke="#FFFFFF" x1="-458.1" y1="687.66" x2="1544.688" y2="239.304"/>
				<line fill="none" stroke="#FFFFFF" x1="-414.994" y1="647.09" x2="1518.618" y2="232.566"/>
				<line fill="none" stroke="#FFFFFF" x1="-375.811" y1="610.232" x2="1494.995" y2="226.427"/>
				<line fill="none" stroke="#FFFFFF" x1="-340.09" y1="576.645" x2="1473.509" y2="220.819"/>
				<line fill="none" stroke="#FFFFFF" x1="-307.841" y1="546.334" x2="1454.156" y2="215.745"/>
				<line fill="none" stroke="#FFFFFF" x1="-278.146" y1="518.435" x2="1436.381" y2="211.065"/>
				<line fill="none" stroke="#FFFFFF" x1="-251.462" y1="493.375" x2="1420.438" y2="206.854"/>
				<line fill="none" stroke="#FFFFFF" x1="-226.871" y1="470.288" x2="1405.771" y2="202.968"/>
				<line fill="none" stroke="#FFFFFF" x1="-204.847" y1="449.615" x2="1392.657" y2="199.481"/>
				<line fill="none" stroke="#FFFFFF" x1="-184.443" y1="430.468" x2="1380.529" y2="196.25"/>
				<line fill="none" stroke="#FFFFFF" x1="-166.149" y1="413.31" x2="1369.663" y2="193.348"/>
				<line fill="none" stroke="#FFFFFF" x1="-149.48" y1="397.675" x2="1359.779" y2="190.701"/>
				<line fill="none" stroke="#FFFFFF" x1="-134.228" y1="383.37" x2="1350.742" y2="188.277"/>
				<line fill="none" stroke="#FFFFFF" x1="-120.362" y1="370.373" x2="1342.541" y2="186.072"/>
				<line fill="none" stroke="#FFFFFF" x1="-107.904" y1="358.698" x2="1335.18" y2="184.091"/>
				<line fill="none" stroke="#FFFFFF" x1="-96.393" y1="347.905" x2="1328.375" y2="182.257"/>
				<line fill="none" stroke="#FFFFFF" x1="-86.048" y1="338.213" x2="1322.27" y2="180.608"/>
				<line fill="none" stroke="#FFFFFF" x1="-76.638" y1="329.393" x2="1316.721" y2="179.108"/>
				<line fill="none" stroke="#FFFFFF" x1="-67.93" y1="321.237" x2="1311.592" y2="177.722"/>
				<line fill="none" stroke="#FFFFFF" x1="-60.168" y1="313.966" x2="1307.015" y2="176.482"/>
				<line fill="none" stroke="#FFFFFF" x1="-53.117" y1="307.36" x2="1302.859" y2="175.355"/>
				<line fill="none" stroke="#FFFFFF" x1="-46.516" y1="301.178" x2="1298.984" y2="174.304"/>
				<line fill="none" stroke="#FFFFFF" x1="-40.638" y1="295.673" x2="1295.52" y2="173.363"/>
				<line fill="none" stroke="#FFFFFF" x1="-35.219" y1="290.598" x2="1292.339" y2="172.497"/>
				<line fill="none" stroke="#FFFFFF" x1="-30.51" y1="286.188" x2="1289.569" y2="171.745"/>
			</g>
		</g>
	</g>
	<g>
		<defs>
			<rect id="SVGID_3_" x="-81.254" y="-0.498" width="1606.381" height="334"/>
		</defs>
		<clipPath id="SVGID_4_">
			<use xlink:href="#SVGID_3_"  overflow="visible"/>
		</clipPath>
		<g clip-path="url(#SVGID_4_)">
			
				<use xlink:href="#_x12_1035227680_2038135710_99"  width="70.282" height="81.155" x="-35.141" y="-40.577" transform="matrix(0.5425 0 0 -0.5425 857.2686 8.585)" overflow="visible"/>
			
				<use xlink:href="#_x12_1035227680_2038201502_99"  width="70.282" height="81.155" x="-35.141" y="-40.577" transform="matrix(0.5331 0 0 -0.5331 833.0938 6.646)" overflow="visible"/>
			
				<use xlink:href="#_x12_1035227680_2038201502_99"  width="70.282" height="81.155" x="-35.141" y="-40.577" transform="matrix(0.3958 0 0 -0.3958 850.0234 26.7905)" overflow="visible"/>
			
				<use xlink:href="#_x12_1035227680_2038201502_99"  width="70.282" height="81.155" x="-35.141" y="-40.577" transform="matrix(0.488 0 0 -0.488 822.3857 33.061)" overflow="visible"/>
			
				<use xlink:href="#_x12_1035227680_2038201502_99"  width="70.282" height="81.155" x="-35.141" y="-40.577" transform="matrix(0.3367 0 0 -0.3367 833.707 50.2988)" overflow="visible"/>
			
				<use xlink:href="#_x12_1035227680_2038201502_99"  width="70.282" height="81.155" x="-35.141" y="-40.577" transform="matrix(0.3276 0 0 -0.3276 861.4531 53.3047)" overflow="visible"/>
			
				<use xlink:href="#_x12_1035227680_2038201502_99"  width="70.282" height="81.155" x="-35.141" y="-40.577" transform="matrix(0.367 0 0 -0.367 876.9492 63.5156)" overflow="visible"/>
			
				<use xlink:href="#_x12_1035227680_2038201502_99"  width="70.282" height="81.155" x="-35.141" y="-40.577" transform="matrix(0.2212 0 0 -0.2212 858.0859 73.8008)" overflow="visible"/>
			
				<use xlink:href="#_x12_1035227680_2038201502_98"  width="70.282" height="81.155" x="-35.141" y="-40.577" transform="matrix(0.3565 0 0 -0.3565 822.9189 78.1035)" overflow="visible"/>
			
				<use xlink:href="#_x12_1035227680_2038201502_97"  width="70.282" height="81.155" x="-35.141" y="-40.577" transform="matrix(0.2527 0 0 -0.2527 834.4922 91.4785)" overflow="visible"/>
			
				<use xlink:href="#_x12_1035227680_2038201502_96"  width="70.282" height="81.155" x="-35.141" y="-40.577" transform="matrix(0.2767 0 0 -0.2767 863.8525 101.7354)" overflow="visible"/>
			
				<use xlink:href="#_x12_1035227680_2038201502_95"  width="70.282" height="81.155" x="-35.141" y="-40.577" transform="matrix(0.2599 0 0 -0.2599 849.8301 106.6084)" overflow="visible"/>
			
				<use xlink:href="#_x12_1035227680_2038201502_91"  width="70.282" height="81.155" x="-35.141" y="-40.577" transform="matrix(0.3529 0 0 -0.3529 826.6924 113.2783)" overflow="visible"/>
			
				<use xlink:href="#_x12_1035227680_2038201502_91"  width="70.282" height="81.155" x="-35.141" y="-40.577" transform="matrix(0.3306 0 0 -0.3306 845.9727 126.0938)" overflow="visible"/>
		</g>
	</g>
	<g>
		<defs>
			<rect id="SVGID_5_" x="-81.254" y="-0.498" width="1606.381" height="334"/>
		</defs>
		<clipPath id="SVGID_6_">
			<use xlink:href="#SVGID_5_"  overflow="visible"/>
		</clipPath>
		<g clip-path="url(#SVGID_6_)">
			
				<use xlink:href="#_x12_913531680_2038135710_99"  width="11.662" height="10.1" x="-5.831" y="-5.05" transform="matrix(0.8733 0 0 -0.8733 888.0996 36.5083)" overflow="visible"/>
			
				<use xlink:href="#_x12_913531680_2038201502_99"  width="11.662" height="10.1" x="-5.831" y="-5.05" transform="matrix(1.1202 0 0 -1.1202 858.8896 22.7031)" overflow="visible"/>
			
				<use xlink:href="#_x12_913531680_2038201502_99"  width="11.662" height="10.1" x="-5.831" y="-5.05" transform="matrix(0.8064 0 0 -0.8064 830.6152 15.0195)" overflow="visible"/>
			
				<use xlink:href="#_x12_913531680_2038201502_99"  width="11.662" height="10.1" x="-5.831" y="-5.05" transform="matrix(0.6653 0 0 -0.6653 817.1807 17.7192)" overflow="visible"/>
			
				<use xlink:href="#_x12_913531680_2038201502_99"  width="11.662" height="10.1" x="-5.831" y="-5.05" transform="matrix(0.6646 0 0 -0.6646 813.3711 28.4468)" overflow="visible"/>
			
				<use xlink:href="#_x12_913531680_2038201502_99"  width="11.662" height="10.1" x="-5.831" y="-5.05" transform="matrix(0.8897 0 0 -0.8897 836.1641 49.1904)" overflow="visible"/>
			
				<use xlink:href="#_x12_913531680_2038201502_99"  width="11.662" height="10.1" x="-5.831" y="-5.05" transform="matrix(0.7473 0 0 -0.7473 899.8564 52.5625)" overflow="visible"/>
			
				<use xlink:href="#_x12_913531680_2038201502_99"  width="11.662" height="10.1" x="-5.831" y="-5.05" transform="matrix(0.6382 0 0 -0.6382 892.2578 68.6074)" overflow="visible"/>
			
				<use xlink:href="#_x12_913531680_2038201502_96"  width="11.662" height="10.1" x="-5.831" y="-5.05" transform="matrix(0.5116 0 0 -0.5116 804.0977 83.835)" overflow="visible"/>
			
				<use xlink:href="#_x12_913531680_2038201502_91"  width="11.662" height="10.1" x="-5.831" y="-5.05" transform="matrix(0.4811 0 0 -0.4811 795.7578 92.7705)" overflow="visible"/>
			
				<use xlink:href="#_x12_913531680_2038201502_98"  width="11.662" height="10.1" x="-5.831" y="-5.05" transform="matrix(0.4766 0 0 -0.4766 847.4326 101.7979)" overflow="visible"/>
			
				<use xlink:href="#_x12_913531680_2038201502_87"  width="11.662" height="10.1" x="-5.831" y="-5.05" transform="matrix(0.3872 0 0 -0.3872 847.0234 124.1729)" overflow="visible"/>
			
				<use xlink:href="#_x12_913531680_2038201502_77"  width="11.662" height="10.1" x="-5.831" y="-5.05" transform="matrix(0.4892 0 0 -0.4892 828.0537 135.2861)" overflow="visible"/>
			
				<use xlink:href="#_x12_913531680_2038201502_95"  width="11.662" height="10.1" x="-5.831" y="-5.05" transform="matrix(0.4669 0 0 -0.4669 836.875 106.2461)" overflow="visible"/>
			
				<use xlink:href="#_x12_913531680_2038201502_99"  width="11.662" height="10.1" x="-5.831" y="-5.05" transform="matrix(1.1199 0 0 -1.1199 845.0244 28.4331)" overflow="visible"/>
			
				<use xlink:href="#_x12_913531680_2038201502_99"  width="11.662" height="10.1" x="-5.831" y="-5.05" transform="matrix(0.9112 0 0 -0.9112 837.5146 -11.6182)" overflow="visible"/>
			
				<use xlink:href="#_x12_913531680_2038201502_98"  width="11.662" height="10.1" x="-5.831" y="-5.05" transform="matrix(0.7159 0 0 -0.7159 814.0117 -9.2666)" overflow="visible"/>
			
				<use xlink:href="#_x12_913531680_2038201502_99"  width="11.662" height="10.1" x="-5.831" y="-5.05" transform="matrix(0.5319 0 0 -0.5319 803.2803 22.6553)" overflow="visible"/>
			
				<use xlink:href="#_x12_913531680_2038201502_97"  width="11.662" height="10.1" x="-5.831" y="-5.05" transform="matrix(0.518 0 0 -0.518 805.2246 78.0273)" overflow="visible"/>
			
				<use xlink:href="#_x12_913531680_2038201502_86"  width="11.662" height="10.1" x="-5.831" y="-5.05" transform="matrix(0.5178 0 0 -0.5178 816.3389 110.1289)" overflow="visible"/>
			
				<use xlink:href="#_x12_913531680_2038201502_76"  width="11.662" height="10.1" x="-5.831" y="-5.05" transform="matrix(0.5632 0 0 -0.5632 798.5498 120.2168)" overflow="visible"/>
			
				<use xlink:href="#_x12_913531680_2038201502_77"  width="11.662" height="10.1" x="-5.831" y="-5.05" transform="matrix(0.581 0 0 -0.581 752.6777 102.2695)" overflow="visible"/>
			
				<use xlink:href="#_x12_913531680_2038201502_95"  width="11.662" height="10.1" x="-5.831" y="-5.05" transform="matrix(0.3721 0 0 -0.3721 752.4883 27.8701)" overflow="visible"/>
			
				<use xlink:href="#_x12_913531680_2038201502_86"  width="11.662" height="10.1" x="-5.831" y="-5.05" transform="matrix(0.5555 0 0 -0.5555 726.7324 18.2642)" overflow="visible"/>
			
				<use xlink:href="#_x12_913531680_2038201502_90"  width="11.662" height="10.1" x="-5.831" y="-5.05" transform="matrix(0.4594 0 0 -0.4594 737.4355 24.9048)" overflow="visible"/>
			
				<use xlink:href="#_x12_913531680_2038201502_99"  width="11.662" height="10.1" x="-5.831" y="-5.05" transform="matrix(0.8837 0 0 -0.8837 904.0322 6.9399)" overflow="visible"/>
			
				<use xlink:href="#_x12_913531680_2038201502_91"  width="11.662" height="10.1" x="-5.831" y="-5.05" transform="matrix(0.3418 0 0 -0.3418 971.2061 -0.1802)" overflow="visible"/>
			
				<use xlink:href="#_x12_913531680_2038201502_88"  width="11.662" height="10.1" x="-5.831" y="-5.05" transform="matrix(0.3396 0 0 -0.3396 1020.9141 -21.1045)" overflow="visible"/>
			
				<use xlink:href="#_x12_913531680_2038201502_91"  width="11.662" height="10.1" x="-5.831" y="-5.05" transform="matrix(0.5314 0 0 -0.5314 1046.6318 -20.3994)" overflow="visible"/>
			
				<use xlink:href="#_x12_913531680_2038201502_98"  width="11.662" height="10.1" x="-5.831" y="-5.05" transform="matrix(0.4899 0 0 -0.4899 951.0488 21.6514)" overflow="visible"/>
			
				<use xlink:href="#_x12_913531680_2038201502_99"  width="11.662" height="10.1" x="-5.831" y="-5.05" transform="matrix(0.9522 0 0 -0.9522 858.9072 55.418)" overflow="visible"/>
			
				<use xlink:href="#_x12_913531680_2038201502_98"  width="11.662" height="10.1" x="-5.831" y="-5.05" transform="matrix(0.661 0 0 -0.661 823.5693 86.5898)" overflow="visible"/>
			
				<use xlink:href="#_x12_913531680_2038201502_98"  width="11.662" height="10.1" x="-5.831" y="-5.05" transform="matrix(0.4664 0 0 -0.4664 853.1484 99.5195)" overflow="visible"/>
			
				<use xlink:href="#_x12_913531680_2038201502_99"  width="11.662" height="10.1" x="-5.831" y="-5.05" transform="matrix(0.5012 0 0 -0.5012 959.7705 78.7393)" overflow="visible"/>
			
				<use xlink:href="#_x12_913531680_2038201502_99"  width="11.662" height="10.1" x="-5.831" y="-5.05" transform="matrix(0.3549 0 0 -0.3549 934.3291 90.5898)" overflow="visible"/>
		</g>
	</g>
</g>
</svg>
