<?xml version="1.0" encoding="utf-8"?>
<!-- Generator: Adobe Illustrator 15.0.2, SVG Export Plug-In . SVG Version: 6.00 Build 0)  -->
<!DOCTYPE svg PUBLIC "-//W3C//DTD SVG 1.1//EN" "http://www.w3.org/Graphics/SVG/1.1/DTD/svg11.dtd">
<svg version="1.1" id="Layer_1" xmlns="http://www.w3.org/2000/svg" xmlns:xlink="http://www.w3.org/1999/xlink" x="0px" y="0px"
	 width="1329px" height="160px" viewBox="0 0 1329 160" enable-background="new 0 0 1329 160" xml:space="preserve">
<symbol  id="_x12_569504560_2038135710_99_x00_" viewBox="-35.141 -40.577 70.282 81.155">
	<polygon fill="none" stroke="#A0A1A2" points="0,-40 -34.641,-20 -34.641,20 0,40 34.641,20 34.641,-20 	"/>
</symbol>
<symbol  id="_x12_569504560_2038201502_91_x00_" viewBox="-35.141 -40.577 70.282 81.155">
	<polygon fill="none" stroke="#A4A5A6" points="0,-40 -34.641,-20 -34.641,20 0,40 34.641,20 34.641,-20 	"/>
</symbol>
<symbol  id="_x12_569504560_2038201502_95_x00_" viewBox="-35.141 -40.577 70.282 81.155">
	<polygon fill="none" stroke="#A2A3A4" points="0,-40 -34.641,-20 -34.641,20 0,40 34.641,20 34.641,-20 	"/>
</symbol>
<symbol  id="_x12_569504560_2038201502_96_x00_" viewBox="-35.141 -40.577 70.282 81.155">
	<polygon fill="none" stroke="#A2A3A4" points="0,-40 -34.641,-20 -34.641,20 0,40 34.641,20 34.641,-20 	"/>
</symbol>
<symbol  id="_x12_569504560_2038201502_97_x00_" viewBox="-35.141 -40.577 70.282 81.155">
	<polygon fill="none" stroke="#A1A2A3" points="0,-40 -34.641,-20 -34.641,20 0,40 34.641,20 34.641,-20 	"/>
</symbol>
<symbol  id="_x12_569504560_2038201502_98_x00_" viewBox="-35.141 -40.577 70.282 81.155">
	<polygon fill="none" stroke="#A1A2A3" points="0,-40 -34.641,-20 -34.641,20 0,40 34.641,20 34.641,-20 	"/>
</symbol>
<symbol  id="_x12_569504560_2038201502_99_x00_" viewBox="-35.141 -40.577 70.282 81.155">
	<polygon fill="none" stroke="#A0A1A2" points="0,-40 -34.641,-20 -34.641,20 0,40 34.641,20 34.641,-20 	"/>
</symbol>
<symbol  id="_x12_569578144_2038135710_99_x00_" viewBox="-5.831 -5.05 11.662 10.1">
	<polygon fill="#A0A1A2" points="-2.916,-5.05 -5.831,0 -2.916,5.05 2.916,5.05 5.831,0 2.916,-5.05 	"/>
</symbol>
<symbol  id="_x12_569578144_2038201502_76_x00_" viewBox="-5.831 -5.05 11.662 10.1">
	<polygon fill="#AAABAE" points="-2.916,-5.05 -5.831,0 -2.916,5.05 2.916,5.05 5.831,0 2.916,-5.05 	"/>
</symbol>
<symbol  id="_x12_569578144_2038201502_77_x00_" viewBox="-5.831 -5.05 11.662 10.1">
	<polygon fill="#A9ABAD" points="-2.916,-5.05 -5.831,0 -2.916,5.05 2.916,5.05 5.831,0 2.916,-5.05 	"/>
</symbol>
<symbol  id="_x12_569578144_2038201502_86_x00_" viewBox="-5.831 -5.05 11.662 10.1">
	<polygon fill="#A5A7A9" points="-2.916,-5.05 -5.831,0 -2.916,5.05 2.916,5.05 5.831,0 2.916,-5.05 	"/>
</symbol>
<symbol  id="_x12_569578144_2038201502_87_x00_" viewBox="-5.831 -5.05 11.662 10.1">
	<polygon fill="#A5A6A8" points="-2.916,-5.05 -5.831,0 -2.916,5.05 2.916,5.05 5.831,0 2.916,-5.05 	"/>
</symbol>
<symbol  id="_x12_569578144_2038201502_88_x00_" viewBox="-5.831 -5.05 11.662 10.1">
	<polygon fill="#A4A6A8" points="-2.916,-5.05 -5.831,0 -2.916,5.05 2.916,5.05 5.831,0 2.916,-5.05 	"/>
</symbol>
<symbol  id="_x12_569578144_2038201502_90_x00_" viewBox="-5.831 -5.05 11.662 10.1">
	<polygon fill="#A4A5A7" points="-2.916,-5.05 -5.831,0 -2.916,5.05 2.916,5.05 5.831,0 2.916,-5.05 	"/>
</symbol>
<symbol  id="_x12_569578144_2038201502_91_x00_" viewBox="-5.831 -5.05 11.662 10.1">
	<polygon fill="#A3A5A6" points="-2.916,-5.05 -5.831,0 -2.916,5.05 2.916,5.05 5.831,0 2.916,-5.05 	"/>
</symbol>
<symbol  id="_x12_569578144_2038201502_95_x00_" viewBox="-5.831 -5.05 11.662 10.1">
	<polygon fill="#A2A3A5" points="-2.916,-5.05 -5.831,0 -2.916,5.05 2.916,5.05 5.831,0 2.916,-5.05 	"/>
</symbol>
<symbol  id="_x12_569578144_2038201502_96_x00_" viewBox="-5.831 -5.05 11.662 10.1">
	<polygon fill="#A1A3A4" points="-2.916,-5.05 -5.831,0 -2.916,5.05 2.916,5.05 5.831,0 2.916,-5.05 	"/>
</symbol>
<symbol  id="_x12_569578144_2038201502_97_x00_" viewBox="-5.831 -5.05 11.662 10.1">
	<polygon fill="#A1A2A3" points="-2.916,-5.05 -5.831,0 -2.916,5.05 2.916,5.05 5.831,0 2.916,-5.05 	"/>
</symbol>
<symbol  id="_x12_569578144_2038201502_98_x00_" viewBox="-5.831 -5.05 11.662 10.1">
	<polygon fill="#A0A2A3" points="-2.916,-5.05 -5.831,0 -2.916,5.05 2.916,5.05 5.831,0 2.916,-5.05 	"/>
</symbol>
<symbol  id="_x12_569578144_2038201502_99_x00_" viewBox="-5.831 -5.05 11.662 10.1">
	<polygon fill="#A0A1A3" points="-2.916,-5.05 -5.831,0 -2.916,5.05 2.916,5.05 5.831,0 2.916,-5.05 	"/>
</symbol>
<g>
	<defs>
		<rect id="SVGID_1_" x="-224" y="-289.5" width="1823.001" height="463"/>
	</defs>
	<clipPath id="SVGID_2_">
		<use xlink:href="#SVGID_1_"  overflow="visible"/>
	</clipPath>
	<g clip-path="url(#SVGID_2_)">
		<g>
			<polygon fill="none" stroke="#FFFFFF" points="-161.339,102.107 1328.69,-51.725 1653.721,53.13 -705.276,726.117 			"/>
			<line fill="none" stroke="#FFFFFF" x1="-651.664" y1="664.445" x2="1621.198" y2="42.92"/>
			<line fill="none" stroke="#FFFFFF" x1="-602.744" y1="608.203" x2="1591.613" y2="33.58"/>
			<line fill="none" stroke="#FFFFFF" x1="-558.279" y1="557.112" x2="1564.805" y2="25.069"/>
			<line fill="none" stroke="#FFFFFF" x1="-517.74" y1="510.55" x2="1540.421" y2="17.295"/>
			<line fill="none" stroke="#FFFFFF" x1="-481.141" y1="468.533" x2="1518.46" y2="10.262"/>
			<line fill="none" stroke="#FFFFFF" x1="-447.443" y1="429.859" x2="1498.287" y2="3.774"/>
			<line fill="none" stroke="#FFFFFF" x1="-417.163" y1="395.121" x2="1480.194" y2="-2.062"/>
			<line fill="none" stroke="#FFFFFF" x1="-389.255" y1="363.119" x2="1463.55" y2="-7.451"/>
			<line fill="none" stroke="#FFFFFF" x1="-364.262" y1="334.462" x2="1448.667" y2="-12.283"/>
			<line fill="none" stroke="#FFFFFF" x1="-341.104" y1="307.916" x2="1434.904" y2="-16.762"/>
			<line fill="none" stroke="#FFFFFF" x1="-320.345" y1="284.134" x2="1422.572" y2="-20.786"/>
			<line fill="none" stroke="#FFFFFF" x1="-301.428" y1="262.46" x2="1411.355" y2="-24.455"/>
			<line fill="none" stroke="#FFFFFF" x1="-284.119" y1="242.631" x2="1401.1" y2="-27.815"/>
			<line fill="none" stroke="#FFFFFF" x1="-268.383" y1="224.614" x2="1391.793" y2="-30.871"/>
			<line fill="none" stroke="#FFFFFF" x1="-254.246" y1="208.429" x2="1383.438" y2="-33.617"/>
			<line fill="none" stroke="#FFFFFF" x1="-241.182" y1="193.468" x2="1375.717" y2="-36.161"/>
			<line fill="none" stroke="#FFFFFF" x1="-229.442" y1="180.031" x2="1368.787" y2="-38.445"/>
			<line fill="none" stroke="#FFFFFF" x1="-218.763" y1="167.806" x2="1362.49" y2="-40.523"/>
			<line fill="none" stroke="#FFFFFF" x1="-208.88" y1="156.499" x2="1356.67" y2="-42.448"/>
			<line fill="none" stroke="#FFFFFF" x1="-200.072" y1="146.42" x2="1351.475" y2="-44.167"/>
			<line fill="none" stroke="#FFFFFF" x1="-192.07" y1="137.261" x2="1346.76" y2="-45.729"/>
			<line fill="none" stroke="#FFFFFF" x1="-184.579" y1="128.693" x2="1342.361" y2="-47.186"/>
			<line fill="none" stroke="#FFFFFF" x1="-177.907" y1="121.061" x2="1338.43" y2="-48.49"/>
			<line fill="none" stroke="#FFFFFF" x1="-171.757" y1="114.026" x2="1334.82" y2="-49.688"/>
			<line fill="none" stroke="#FFFFFF" x1="-166.414" y1="107.913" x2="1331.678" y2="-50.732"/>
		</g>
	</g>
	<g clip-path="url(#SVGID_2_)">
		
			<use xlink:href="#_x12_569504560_2038135710_99_x00_"  width="70.282" height="81.155" x="-35.141" y="-40.577" transform="matrix(0.6157 0 0 -0.7521 841.0791 -276.9087)" overflow="visible"/>
		
			<use xlink:href="#_x12_569504560_2038201502_99_x00_"  width="70.282" height="81.155" x="-35.141" y="-40.577" transform="matrix(0.605 0 0 -0.739 813.6445 -279.5967)" overflow="visible"/>
		
			<use xlink:href="#_x12_569504560_2038201502_99_x00_"  width="70.282" height="81.155" x="-35.141" y="-40.577" transform="matrix(0.4491 0 0 -0.5486 832.8574 -251.6719)" overflow="visible"/>
		
			<use xlink:href="#_x12_569504560_2038201502_99_x00_"  width="70.282" height="81.155" x="-35.141" y="-40.577" transform="matrix(0.5538 0 0 -0.6765 801.4932 -242.9795)" overflow="visible"/>
		
			<use xlink:href="#_x12_569504560_2038201502_99_x00_"  width="70.282" height="81.155" x="-35.141" y="-40.577" transform="matrix(0.3822 0 0 -0.4669 814.3408 -219.084)" overflow="visible"/>
		
			<use xlink:href="#_x12_569504560_2038201502_99_x00_"  width="70.282" height="81.155" x="-35.141" y="-40.577" transform="matrix(0.3718 0 0 -0.4542 845.8281 -214.917)" overflow="visible"/>
		
			<use xlink:href="#_x12_569504560_2038201502_99_x00_"  width="70.282" height="81.155" x="-35.141" y="-40.577" transform="matrix(0.4164 0 0 -0.5086 863.4141 -200.7622)" overflow="visible"/>
		
			<use xlink:href="#_x12_569504560_2038201502_99_x00_"  width="70.282" height="81.155" x="-35.141" y="-40.577" transform="matrix(0.251 0 0 -0.3066 842.0068 -186.5063)" overflow="visible"/>
		
			<use xlink:href="#_x12_569504560_2038201502_98_x00_"  width="70.282" height="81.155" x="-35.141" y="-40.577" transform="matrix(0.4046 0 0 -0.4942 802.0986 -180.54)" overflow="visible"/>
		
			<use xlink:href="#_x12_569504560_2038201502_97_x00_"  width="70.282" height="81.155" x="-35.141" y="-40.577" transform="matrix(0.2868 0 0 -0.3504 815.2314 -162)" overflow="visible"/>
		
			<use xlink:href="#_x12_569504560_2038201502_96_x00_"  width="70.282" height="81.155" x="-35.141" y="-40.577" transform="matrix(0.314 0 0 -0.3835 848.5508 -147.7812)" overflow="visible"/>
		
			<use xlink:href="#_x12_569504560_2038201502_95_x00_"  width="70.282" height="81.155" x="-35.141" y="-40.577" transform="matrix(0.2949 0 0 -0.3602 832.6377 -141.0269)" overflow="visible"/>
		
			<use xlink:href="#_x12_569504560_2038201502_91_x00_"  width="70.282" height="81.155" x="-35.141" y="-40.577" transform="matrix(0.4005 0 0 -0.4893 806.3809 -131.7808)" overflow="visible"/>
		
			<use xlink:href="#_x12_569504560_2038201502_91_x00_"  width="70.282" height="81.155" x="-35.141" y="-40.577" transform="matrix(0.3751 0 0 -0.4582 828.2617 -114.0151)" overflow="visible"/>
	</g>
	<g clip-path="url(#SVGID_2_)">
		
			<use xlink:href="#_x12_569578144_2038135710_99_x00_"  width="11.662" height="10.1" x="-5.831" y="-5.05" transform="matrix(0.991 0 0 -1.2105 876.0703 -238.2021)" overflow="visible"/>
		
			<use xlink:href="#_x12_569578144_2038201502_99_x00_"  width="11.662" height="10.1" x="-5.831" y="-5.05" transform="matrix(1.2712 0 0 -1.5528 842.9229 -257.3398)" overflow="visible"/>
		
			<use xlink:href="#_x12_569578144_2038201502_99_x00_"  width="11.662" height="10.1" x="-5.831" y="-5.05" transform="matrix(0.9151 0 0 -1.1178 810.835 -267.9907)" overflow="visible"/>
		
			<use xlink:href="#_x12_569578144_2038201502_99_x00_"  width="11.662" height="10.1" x="-5.831" y="-5.05" transform="matrix(0.7549 0 0 -0.9222 795.5889 -264.248)" overflow="visible"/>
		
			<use xlink:href="#_x12_569578144_2038201502_99_x00_"  width="11.662" height="10.1" x="-5.831" y="-5.05" transform="matrix(0.7543 0 0 -0.9214 791.2656 -249.377)" overflow="visible"/>
		
			<use xlink:href="#_x12_569578144_2038201502_99_x00_"  width="11.662" height="10.1" x="-5.831" y="-5.05" transform="matrix(1.0096 0 0 -1.2333 817.1318 -220.6216)" overflow="visible"/>
		
			<use xlink:href="#_x12_569578144_2038201502_99_x00_"  width="11.662" height="10.1" x="-5.831" y="-5.05" transform="matrix(0.848 0 0 -1.0359 889.4131 -215.9468)" overflow="visible"/>
		
			<use xlink:href="#_x12_569578144_2038201502_99_x00_"  width="11.662" height="10.1" x="-5.831" y="-5.05" transform="matrix(0.7243 0 0 -0.8848 880.79 -193.7051)" overflow="visible"/>
		
			<use xlink:href="#_x12_569578144_2038201502_96_x00_"  width="11.662" height="10.1" x="-5.831" y="-5.05" transform="matrix(0.5806 0 0 -0.7092 780.7402 -172.5967)" overflow="visible"/>
		
			<use xlink:href="#_x12_569578144_2038201502_91_x00_"  width="11.662" height="10.1" x="-5.831" y="-5.05" transform="matrix(0.546 0 0 -0.6669 771.2764 -160.2095)" overflow="visible"/>
		
			<use xlink:href="#_x12_569578144_2038201502_98_x00_"  width="11.662" height="10.1" x="-5.831" y="-5.05" transform="matrix(0.5409 0 0 -0.6607 829.9199 -147.6963)" overflow="visible"/>
		
			<use xlink:href="#_x12_569578144_2038201502_87_x00_"  width="11.662" height="10.1" x="-5.831" y="-5.05" transform="matrix(0.4394 0 0 -0.5367 829.4561 -116.6792)" overflow="visible"/>
		
			<use xlink:href="#_x12_569578144_2038201502_77_x00_"  width="11.662" height="10.1" x="-5.831" y="-5.05" transform="matrix(0.5552 0 0 -0.6782 807.9277 -101.2739)" overflow="visible"/>
		
			<use xlink:href="#_x12_569578144_2038201502_95_x00_"  width="11.662" height="10.1" x="-5.831" y="-5.05" transform="matrix(0.5298 0 0 -0.6472 817.9395 -141.5303)" overflow="visible"/>
		
			<use xlink:href="#_x12_569578144_2038201502_99_x00_"  width="11.662" height="10.1" x="-5.831" y="-5.05" transform="matrix(1.271 0 0 -1.5525 827.1875 -249.3965)" overflow="visible"/>
		
			<use xlink:href="#_x12_569578144_2038201502_99_x00_"  width="11.662" height="10.1" x="-5.831" y="-5.05" transform="matrix(1.034 0 0 -1.2631 818.6641 -304.9165)" overflow="visible"/>
		
			<use xlink:href="#_x12_569578144_2038201502_98_x00_"  width="11.662" height="10.1" x="-5.831" y="-5.05" transform="matrix(0.8124 0 0 -0.9924 791.9922 -301.6572)" overflow="visible"/>
		
			<use xlink:href="#_x12_569578144_2038201502_99_x00_"  width="11.662" height="10.1" x="-5.831" y="-5.05" transform="matrix(0.6036 0 0 -0.7373 779.8135 -257.4053)" overflow="visible"/>
		
			<use xlink:href="#_x12_569578144_2038201502_97_x00_"  width="11.662" height="10.1" x="-5.831" y="-5.05" transform="matrix(0.5878 0 0 -0.7181 782.0205 -180.6479)" overflow="visible"/>
		
			<use xlink:href="#_x12_569578144_2038201502_86_x00_"  width="11.662" height="10.1" x="-5.831" y="-5.05" transform="matrix(0.5876 0 0 -0.7177 794.6338 -136.1484)" overflow="visible"/>
		
			<use xlink:href="#_x12_569578144_2038201502_76_x00_"  width="11.662" height="10.1" x="-5.831" y="-5.05" transform="matrix(0.6392 0 0 -0.7807 774.4453 -122.1641)" overflow="visible"/>
		
			<use xlink:href="#_x12_569578144_2038201502_77_x00_"  width="11.662" height="10.1" x="-5.831" y="-5.05" transform="matrix(0.6593 0 0 -0.8053 722.3867 -147.043)" overflow="visible"/>
		
			<use xlink:href="#_x12_569578144_2038201502_95_x00_"  width="11.662" height="10.1" x="-5.831" y="-5.05" transform="matrix(0.4223 0 0 -0.5158 722.1719 -250.1763)" overflow="visible"/>
		
			<use xlink:href="#_x12_569578144_2038201502_86_x00_"  width="11.662" height="10.1" x="-5.831" y="-5.05" transform="matrix(0.6305 0 0 -0.7701 692.9434 -263.4932)" overflow="visible"/>
		
			<use xlink:href="#_x12_569578144_2038201502_90_x00_"  width="11.662" height="10.1" x="-5.831" y="-5.05" transform="matrix(0.5213 0 0 -0.6368 705.0898 -254.2871)" overflow="visible"/>
		
			<use xlink:href="#_x12_569578144_2038201502_99_x00_"  width="11.662" height="10.1" x="-5.831" y="-5.05" transform="matrix(1.0028 0 0 -1.225 894.1514 -279.1904)" overflow="visible"/>
		
			<use xlink:href="#_x12_569578144_2038201502_91_x00_"  width="11.662" height="10.1" x="-5.831" y="-5.05" transform="matrix(0.3879 0 0 -0.4738 970.3838 -289.0605)" overflow="visible"/>
		
			<use xlink:href="#_x12_569578144_2038201502_88_x00_"  width="11.662" height="10.1" x="-5.831" y="-5.05" transform="matrix(0.3853 0 0 -0.4707 1026.7959 -318.0659)" overflow="visible"/>
		
			<use xlink:href="#_x12_569578144_2038201502_91_x00_"  width="11.662" height="10.1" x="-5.831" y="-5.05" transform="matrix(0.6031 0 0 -0.7366 1055.9814 -317.0889)" overflow="visible"/>
		
			<use xlink:href="#_x12_569578144_2038201502_98_x00_"  width="11.662" height="10.1" x="-5.831" y="-5.05" transform="matrix(0.5559 0 0 -0.679 947.5088 -258.7969)" overflow="visible"/>
		
			<use xlink:href="#_x12_569578144_2038201502_99_x00_"  width="11.662" height="10.1" x="-5.831" y="-5.05" transform="matrix(1.0807 0 0 -1.3201 842.9414 -211.9888)" overflow="visible"/>
		
			<use xlink:href="#_x12_569578144_2038201502_98_x00_"  width="11.662" height="10.1" x="-5.831" y="-5.05" transform="matrix(0.7501 0 0 -0.9163 802.8389 -168.7783)" overflow="visible"/>
		
			<use xlink:href="#_x12_569578144_2038201502_98_x00_"  width="11.662" height="10.1" x="-5.831" y="-5.05" transform="matrix(0.5293 0 0 -0.6465 836.4062 -150.8545)" overflow="visible"/>
		
			<use xlink:href="#_x12_569578144_2038201502_99_x00_"  width="11.662" height="10.1" x="-5.831" y="-5.05" transform="matrix(0.5688 0 0 -0.6947 957.4062 -179.6602)" overflow="visible"/>
		
			<use xlink:href="#_x12_569578144_2038201502_99_x00_"  width="11.662" height="10.1" x="-5.831" y="-5.05" transform="matrix(0.4028 0 0 -0.492 928.5352 -163.2319)" overflow="visible"/>
	</g>
</g>
</svg>
